M48
; DRILL file {KiCad (5.1.9)-1} date 01/27/21 15:23:58
; FORMAT={-:-/ absolute / metric / decimal}
; #@! TF.CreationDate,2021-01-27T15:23:58+02:00
; #@! TF.GenerationSoftware,Kicad,Pcbnew,(5.1.9)-1
; #@! TF.FileFunction,Plated,1,2,PTH
FMAT,2
METRIC
T1C0.400
T2C0.625
T3C0.889
T4C0.900
T5C1.000
T6C1.200
T7C1.300
%
G90
G05
T1
X79.502Y-102.87
X82.55Y-104.14
X94.676Y-92.979
X94.906Y-83.402
X95.123Y-124.079
X95.377Y-87.757
X96.129Y-84.285
X103.378Y-107.188
X104.013Y-119.38
X104.14Y-122.682
X105.279Y-112.549
X106.426Y-124.079
X106.553Y-122.809
X114.234Y-104.14
X114.554Y-102.616
X115.062Y-76.962
X115.316Y-103.378
X129.286Y-99.568
X129.794Y-103.378
X130.847Y-99.822
X131.064Y-104.14
X131.484Y-102.058
X142.24Y-91.186
X148.463Y-98.425
X150.563Y-98.62
X150.622Y-61.214
X150.622Y-66.294
X153.748Y-89.144
X154.178Y-69.596
X154.686Y-59.182
X157.607Y-69.379
X157.607Y-70.829
X157.712Y-61.173
X158.115Y-59.182
X158.242Y-60.325
X159.276Y-63.0
X159.818Y-98.68
X160.268Y-63.125
X160.274Y-97.79
X161.798Y-77.978
X161.925Y-76.237
X164.634Y-98.789
X165.354Y-96.52
T2
X71.628Y-99.822
X73.914Y-100.33
X75.692Y-89.154
X77.724Y-108.712
X82.55Y-79.248
X82.931Y-60.198
X82.936Y-83.952
X84.074Y-128.778
X85.852Y-75.946
X85.868Y-99.584
X86.106Y-96.52
X86.36Y-93.472
X87.884Y-83.058
X89.662Y-107.95
X89.789Y-119.888
X92.202Y-67.818
X93.472Y-75.946
X94.107Y-60.198
X94.361Y-98.933
X94.488Y-113.284
X95.287Y-77.507
X96.012Y-112.688
X98.298Y-87.884
X98.335Y-115.861
X98.933Y-120.396
X100.076Y-110.49
X100.33Y-128.778
X105.283Y-60.198
X105.41Y-119.301
X106.934Y-77.47
X108.272Y-108.966
X111.76Y-101.6
X114.808Y-79.756
X116.459Y-60.198
X119.126Y-67.564
X121.92Y-72.898
X121.92Y-82.042
X121.92Y-95.758
X125.73Y-75.819
X132.08Y-72.898
X139.319Y-61.087
X139.7Y-95.758
X146.304Y-63.5
X148.463Y-88.265
X149.352Y-56.134
X151.13Y-70.104
X152.4Y-72.898
X156.972Y-64.008
X163.068Y-68.326
T3
X119.38Y-72.898
X119.38Y-95.758
X121.92Y-72.898
X121.92Y-95.758
X124.46Y-72.898
X124.46Y-95.758
X127.0Y-72.898
X127.0Y-95.758
X129.54Y-72.898
X129.54Y-95.758
X132.08Y-72.898
X132.08Y-95.758
X134.62Y-72.898
X134.62Y-95.758
X137.16Y-72.898
X137.16Y-95.758
X139.7Y-72.898
X139.7Y-95.758
X142.24Y-72.898
X142.24Y-95.758
X144.78Y-72.898
X144.78Y-95.758
X147.32Y-72.898
X147.32Y-95.758
X149.86Y-72.898
X149.86Y-95.758
X152.4Y-72.898
X152.4Y-95.758
X154.94Y-72.898
X154.94Y-95.758
T4
X164.084Y-82.296
X164.084Y-84.836
T5
X98.298Y-85.344
X98.298Y-87.884
X98.298Y-90.424
X98.298Y-92.964
X98.298Y-95.504
X98.298Y-98.044
X98.298Y-100.584
X98.298Y-103.124
X100.838Y-85.344
X100.838Y-87.884
X100.838Y-90.424
X100.838Y-92.964
X100.838Y-95.504
X100.838Y-98.044
X100.838Y-100.584
X100.838Y-103.124
X151.892Y-56.007
X154.432Y-56.007
X160.528Y-68.326
X163.068Y-68.326
T6
X82.931Y-60.198
X84.074Y-128.778
X88.011Y-60.198
X89.154Y-128.778
X94.107Y-60.198
X94.234Y-128.778
X99.187Y-60.198
X100.33Y-128.778
X105.283Y-60.198
X105.41Y-128.778
X110.363Y-60.198
X110.49Y-128.778
X116.459Y-60.198
X116.586Y-128.778
X121.539Y-60.198
X121.666Y-128.778
X126.619Y-60.198
X126.746Y-128.778
X131.699Y-60.198
X132.842Y-128.778
X137.922Y-128.778
X143.002Y-128.778
T7
X111.284Y-112.934
X113.284Y-106.934
X113.284Y-118.934
X125.484Y-106.934
X125.484Y-118.934
X140.208Y-112.014
X142.208Y-106.014
X142.208Y-118.014
X154.408Y-106.014
X154.408Y-118.014
T0
M30
