%FSLAX45Y45*%
G04 Gerber Fmt 4.5, Leading zero omitted, Abs format (unit mm)*
G04 Created by KiCad (PCBNEW (5.1.9)-1) date 2021-01-27 15:24:58*
%MOMM*%
%LPD*%
G01*
G04 APERTURE LIST*
%TA.AperFunction,Profile*%
%ADD10C,0.050000*%
%TD*%
%ADD11C,0.200000*%
%ADD12C,0.300000*%
G04 APERTURE END LIST*
D10*
X16179800Y-11963400D02*
G75*
G03*
X16179800Y-11963400I-127000J0D01*
G01*
X7645400Y-6934200D02*
G75*
G03*
X7645400Y-6934200I-127000J0D01*
G01*
X6832600Y-13563600D02*
X6832600Y-5334000D01*
X16738600Y-13563600D02*
X6832600Y-13563600D01*
X16738600Y-5334000D02*
X16738600Y-13563600D01*
X6832600Y-5334000D02*
X16738600Y-5334000D01*
D11*
X7079000Y-5580400D02*
X7399000Y-5900400D01*
X7399000Y-5580400D02*
X7079000Y-5900400D01*
X7079000Y-12997200D02*
X7399000Y-13317200D01*
X7399000Y-12997200D02*
X7079000Y-13317200D01*
X11397000Y-7256800D02*
X11717000Y-7576800D01*
X11717000Y-7256800D02*
X11397000Y-7576800D01*
X11397000Y-9288800D02*
X11717000Y-9608800D01*
X11717000Y-9288800D02*
X11397000Y-9608800D01*
X15715000Y-7256800D02*
X16035000Y-7576800D01*
X16035000Y-7256800D02*
X15715000Y-7576800D01*
X15715000Y-9288800D02*
X16035000Y-9608800D01*
X16035000Y-9288800D02*
X15715000Y-9608800D01*
X16159500Y-5580400D02*
X16479500Y-5900400D01*
X16479500Y-5580400D02*
X16159500Y-5900400D01*
X16172200Y-12997200D02*
X16492200Y-13317200D01*
X16492200Y-12997200D02*
X16172200Y-13317200D01*
D12*
X7116528Y-14031814D02*
X7116528Y-13731814D01*
X7187957Y-13731814D01*
X7230814Y-13746100D01*
X7259386Y-13774671D01*
X7273671Y-13803243D01*
X7287957Y-13860386D01*
X7287957Y-13903243D01*
X7273671Y-13960386D01*
X7259386Y-13988957D01*
X7230814Y-14017529D01*
X7187957Y-14031814D01*
X7116528Y-14031814D01*
X7416528Y-14031814D02*
X7416528Y-13831814D01*
X7416528Y-13888957D02*
X7430814Y-13860386D01*
X7445100Y-13846100D01*
X7473671Y-13831814D01*
X7502243Y-13831814D01*
X7602243Y-14031814D02*
X7602243Y-13831814D01*
X7602243Y-13731814D02*
X7587957Y-13746100D01*
X7602243Y-13760386D01*
X7616528Y-13746100D01*
X7602243Y-13731814D01*
X7602243Y-13760386D01*
X7787957Y-14031814D02*
X7759386Y-14017529D01*
X7745100Y-13988957D01*
X7745100Y-13731814D01*
X7945100Y-14031814D02*
X7916528Y-14017529D01*
X7902243Y-13988957D01*
X7902243Y-13731814D01*
X8287957Y-14031814D02*
X8287957Y-13731814D01*
X8387957Y-13946100D01*
X8487957Y-13731814D01*
X8487957Y-14031814D01*
X8759386Y-14031814D02*
X8759386Y-13874671D01*
X8745100Y-13846100D01*
X8716528Y-13831814D01*
X8659386Y-13831814D01*
X8630814Y-13846100D01*
X8759386Y-14017529D02*
X8730814Y-14031814D01*
X8659386Y-14031814D01*
X8630814Y-14017529D01*
X8616528Y-13988957D01*
X8616528Y-13960386D01*
X8630814Y-13931814D01*
X8659386Y-13917529D01*
X8730814Y-13917529D01*
X8759386Y-13903243D01*
X8902243Y-13831814D02*
X8902243Y-14131814D01*
X8902243Y-13846100D02*
X8930814Y-13831814D01*
X8987957Y-13831814D01*
X9016528Y-13846100D01*
X9030814Y-13860386D01*
X9045100Y-13888957D01*
X9045100Y-13974671D01*
X9030814Y-14003243D01*
X9016528Y-14017529D01*
X8987957Y-14031814D01*
X8930814Y-14031814D01*
X8902243Y-14017529D01*
X9173671Y-14003243D02*
X9187957Y-14017529D01*
X9173671Y-14031814D01*
X9159386Y-14017529D01*
X9173671Y-14003243D01*
X9173671Y-14031814D01*
X9173671Y-13846100D02*
X9187957Y-13860386D01*
X9173671Y-13874671D01*
X9159386Y-13860386D01*
X9173671Y-13846100D01*
X9173671Y-13874671D01*
X6510100Y-14366100D02*
X6830100Y-14686100D01*
X6830100Y-14366100D02*
X6510100Y-14686100D01*
X7087957Y-14361814D02*
X7273671Y-14361814D01*
X7173671Y-14476100D01*
X7216528Y-14476100D01*
X7245100Y-14490386D01*
X7259386Y-14504671D01*
X7273671Y-14533243D01*
X7273671Y-14604671D01*
X7259386Y-14633243D01*
X7245100Y-14647529D01*
X7216528Y-14661814D01*
X7130814Y-14661814D01*
X7102243Y-14647529D01*
X7087957Y-14633243D01*
X7402243Y-14633243D02*
X7416528Y-14647529D01*
X7402243Y-14661814D01*
X7387957Y-14647529D01*
X7402243Y-14633243D01*
X7402243Y-14661814D01*
X7530814Y-14390386D02*
X7545100Y-14376100D01*
X7573671Y-14361814D01*
X7645100Y-14361814D01*
X7673671Y-14376100D01*
X7687957Y-14390386D01*
X7702243Y-14418957D01*
X7702243Y-14447529D01*
X7687957Y-14490386D01*
X7516528Y-14661814D01*
X7702243Y-14661814D01*
X7887957Y-14361814D02*
X7916528Y-14361814D01*
X7945100Y-14376100D01*
X7959386Y-14390386D01*
X7973671Y-14418957D01*
X7987957Y-14476100D01*
X7987957Y-14547529D01*
X7973671Y-14604671D01*
X7959386Y-14633243D01*
X7945100Y-14647529D01*
X7916528Y-14661814D01*
X7887957Y-14661814D01*
X7859386Y-14647529D01*
X7845100Y-14633243D01*
X7830814Y-14604671D01*
X7816528Y-14547529D01*
X7816528Y-14476100D01*
X7830814Y-14418957D01*
X7845100Y-14390386D01*
X7859386Y-14376100D01*
X7887957Y-14361814D01*
X8116528Y-14661814D02*
X8116528Y-14461814D01*
X8116528Y-14490386D02*
X8130814Y-14476100D01*
X8159386Y-14461814D01*
X8202243Y-14461814D01*
X8230814Y-14476100D01*
X8245100Y-14504671D01*
X8245100Y-14661814D01*
X8245100Y-14504671D02*
X8259386Y-14476100D01*
X8287957Y-14461814D01*
X8330814Y-14461814D01*
X8359386Y-14476100D01*
X8373671Y-14504671D01*
X8373671Y-14661814D01*
X8516528Y-14661814D02*
X8516528Y-14461814D01*
X8516528Y-14490386D02*
X8530814Y-14476100D01*
X8559386Y-14461814D01*
X8602243Y-14461814D01*
X8630814Y-14476100D01*
X8645100Y-14504671D01*
X8645100Y-14661814D01*
X8645100Y-14504671D02*
X8659386Y-14476100D01*
X8687957Y-14461814D01*
X8730814Y-14461814D01*
X8759386Y-14476100D01*
X8773671Y-14504671D01*
X8773671Y-14661814D01*
X9359386Y-14347529D02*
X9102243Y-14733243D01*
X9745100Y-14361814D02*
X9773671Y-14361814D01*
X9802243Y-14376100D01*
X9816528Y-14390386D01*
X9830814Y-14418957D01*
X9845100Y-14476100D01*
X9845100Y-14547529D01*
X9830814Y-14604671D01*
X9816528Y-14633243D01*
X9802243Y-14647529D01*
X9773671Y-14661814D01*
X9745100Y-14661814D01*
X9716528Y-14647529D01*
X9702243Y-14633243D01*
X9687957Y-14604671D01*
X9673671Y-14547529D01*
X9673671Y-14476100D01*
X9687957Y-14418957D01*
X9702243Y-14390386D01*
X9716528Y-14376100D01*
X9745100Y-14361814D01*
X9973671Y-14633243D02*
X9987957Y-14647529D01*
X9973671Y-14661814D01*
X9959386Y-14647529D01*
X9973671Y-14633243D01*
X9973671Y-14661814D01*
X10273671Y-14661814D02*
X10102243Y-14661814D01*
X10187957Y-14661814D02*
X10187957Y-14361814D01*
X10159386Y-14404671D01*
X10130814Y-14433243D01*
X10102243Y-14447529D01*
X10387957Y-14390386D02*
X10402243Y-14376100D01*
X10430814Y-14361814D01*
X10502243Y-14361814D01*
X10530814Y-14376100D01*
X10545100Y-14390386D01*
X10559386Y-14418957D01*
X10559386Y-14447529D01*
X10545100Y-14490386D01*
X10373671Y-14661814D01*
X10559386Y-14661814D01*
X10816528Y-14361814D02*
X10759386Y-14361814D01*
X10730814Y-14376100D01*
X10716528Y-14390386D01*
X10687957Y-14433243D01*
X10673671Y-14490386D01*
X10673671Y-14604671D01*
X10687957Y-14633243D01*
X10702243Y-14647529D01*
X10730814Y-14661814D01*
X10787957Y-14661814D01*
X10816528Y-14647529D01*
X10830814Y-14633243D01*
X10845100Y-14604671D01*
X10845100Y-14533243D01*
X10830814Y-14504671D01*
X10816528Y-14490386D01*
X10787957Y-14476100D01*
X10730814Y-14476100D01*
X10702243Y-14490386D01*
X10687957Y-14504671D01*
X10673671Y-14533243D01*
X10959386Y-14361814D02*
X10959386Y-14418957D01*
X11073671Y-14361814D02*
X11073671Y-14418957D01*
X11516528Y-14776100D02*
X11502243Y-14761814D01*
X11473671Y-14718957D01*
X11459386Y-14690386D01*
X11445100Y-14647529D01*
X11430814Y-14576100D01*
X11430814Y-14518957D01*
X11445100Y-14447529D01*
X11459386Y-14404671D01*
X11473671Y-14376100D01*
X11502243Y-14333243D01*
X11516528Y-14318957D01*
X11673671Y-14490386D02*
X11645100Y-14476100D01*
X11630814Y-14461814D01*
X11616528Y-14433243D01*
X11616528Y-14418957D01*
X11630814Y-14390386D01*
X11645100Y-14376100D01*
X11673671Y-14361814D01*
X11730814Y-14361814D01*
X11759386Y-14376100D01*
X11773671Y-14390386D01*
X11787957Y-14418957D01*
X11787957Y-14433243D01*
X11773671Y-14461814D01*
X11759386Y-14476100D01*
X11730814Y-14490386D01*
X11673671Y-14490386D01*
X11645100Y-14504671D01*
X11630814Y-14518957D01*
X11616528Y-14547529D01*
X11616528Y-14604671D01*
X11630814Y-14633243D01*
X11645100Y-14647529D01*
X11673671Y-14661814D01*
X11730814Y-14661814D01*
X11759386Y-14647529D01*
X11773671Y-14633243D01*
X11787957Y-14604671D01*
X11787957Y-14547529D01*
X11773671Y-14518957D01*
X11759386Y-14504671D01*
X11730814Y-14490386D01*
X12145100Y-14661814D02*
X12145100Y-14361814D01*
X12273671Y-14661814D02*
X12273671Y-14504671D01*
X12259386Y-14476100D01*
X12230814Y-14461814D01*
X12187957Y-14461814D01*
X12159386Y-14476100D01*
X12145100Y-14490386D01*
X12459386Y-14661814D02*
X12430814Y-14647529D01*
X12416528Y-14633243D01*
X12402243Y-14604671D01*
X12402243Y-14518957D01*
X12416528Y-14490386D01*
X12430814Y-14476100D01*
X12459386Y-14461814D01*
X12502243Y-14461814D01*
X12530814Y-14476100D01*
X12545100Y-14490386D01*
X12559386Y-14518957D01*
X12559386Y-14604671D01*
X12545100Y-14633243D01*
X12530814Y-14647529D01*
X12502243Y-14661814D01*
X12459386Y-14661814D01*
X12730814Y-14661814D02*
X12702243Y-14647529D01*
X12687957Y-14618957D01*
X12687957Y-14361814D01*
X12959386Y-14647529D02*
X12930814Y-14661814D01*
X12873671Y-14661814D01*
X12845100Y-14647529D01*
X12830814Y-14618957D01*
X12830814Y-14504671D01*
X12845100Y-14476100D01*
X12873671Y-14461814D01*
X12930814Y-14461814D01*
X12959386Y-14476100D01*
X12973671Y-14504671D01*
X12973671Y-14533243D01*
X12830814Y-14561814D01*
X13087957Y-14647529D02*
X13116528Y-14661814D01*
X13173671Y-14661814D01*
X13202243Y-14647529D01*
X13216528Y-14618957D01*
X13216528Y-14604671D01*
X13202243Y-14576100D01*
X13173671Y-14561814D01*
X13130814Y-14561814D01*
X13102243Y-14547529D01*
X13087957Y-14518957D01*
X13087957Y-14504671D01*
X13102243Y-14476100D01*
X13130814Y-14461814D01*
X13173671Y-14461814D01*
X13202243Y-14476100D01*
X13316528Y-14776100D02*
X13330814Y-14761814D01*
X13359386Y-14718957D01*
X13373671Y-14690386D01*
X13387957Y-14647529D01*
X13402243Y-14576100D01*
X13402243Y-14518957D01*
X13387957Y-14447529D01*
X13373671Y-14404671D01*
X13359386Y-14376100D01*
X13330814Y-14333243D01*
X13316528Y-14318957D01*
X13859386Y-14776100D02*
X13845100Y-14761814D01*
X13816528Y-14718957D01*
X13802243Y-14690386D01*
X13787957Y-14647529D01*
X13773671Y-14576100D01*
X13773671Y-14518957D01*
X13787957Y-14447529D01*
X13802243Y-14404671D01*
X13816528Y-14376100D01*
X13845100Y-14333243D01*
X13859386Y-14318957D01*
X13973671Y-14461814D02*
X13973671Y-14661814D01*
X13973671Y-14490386D02*
X13987957Y-14476100D01*
X14016528Y-14461814D01*
X14059386Y-14461814D01*
X14087957Y-14476100D01*
X14102243Y-14504671D01*
X14102243Y-14661814D01*
X14287957Y-14661814D02*
X14259386Y-14647529D01*
X14245100Y-14633243D01*
X14230814Y-14604671D01*
X14230814Y-14518957D01*
X14245100Y-14490386D01*
X14259386Y-14476100D01*
X14287957Y-14461814D01*
X14330814Y-14461814D01*
X14359386Y-14476100D01*
X14373671Y-14490386D01*
X14387957Y-14518957D01*
X14387957Y-14604671D01*
X14373671Y-14633243D01*
X14359386Y-14647529D01*
X14330814Y-14661814D01*
X14287957Y-14661814D01*
X14473671Y-14461814D02*
X14587957Y-14461814D01*
X14516528Y-14361814D02*
X14516528Y-14618957D01*
X14530814Y-14647529D01*
X14559386Y-14661814D01*
X14587957Y-14661814D01*
X14916528Y-14461814D02*
X14916528Y-14761814D01*
X14916528Y-14476100D02*
X14945100Y-14461814D01*
X15002243Y-14461814D01*
X15030814Y-14476100D01*
X15045100Y-14490386D01*
X15059386Y-14518957D01*
X15059386Y-14604671D01*
X15045100Y-14633243D01*
X15030814Y-14647529D01*
X15002243Y-14661814D01*
X14945100Y-14661814D01*
X14916528Y-14647529D01*
X15230814Y-14661814D02*
X15202243Y-14647529D01*
X15187957Y-14618957D01*
X15187957Y-14361814D01*
X15473671Y-14661814D02*
X15473671Y-14504671D01*
X15459386Y-14476100D01*
X15430814Y-14461814D01*
X15373671Y-14461814D01*
X15345100Y-14476100D01*
X15473671Y-14647529D02*
X15445100Y-14661814D01*
X15373671Y-14661814D01*
X15345100Y-14647529D01*
X15330814Y-14618957D01*
X15330814Y-14590386D01*
X15345100Y-14561814D01*
X15373671Y-14547529D01*
X15445100Y-14547529D01*
X15473671Y-14533243D01*
X15573671Y-14461814D02*
X15687957Y-14461814D01*
X15616528Y-14361814D02*
X15616528Y-14618957D01*
X15630814Y-14647529D01*
X15659386Y-14661814D01*
X15687957Y-14661814D01*
X15902243Y-14647529D02*
X15873671Y-14661814D01*
X15816528Y-14661814D01*
X15787957Y-14647529D01*
X15773671Y-14618957D01*
X15773671Y-14504671D01*
X15787957Y-14476100D01*
X15816528Y-14461814D01*
X15873671Y-14461814D01*
X15902243Y-14476100D01*
X15916528Y-14504671D01*
X15916528Y-14533243D01*
X15773671Y-14561814D01*
X16173671Y-14661814D02*
X16173671Y-14361814D01*
X16173671Y-14647529D02*
X16145100Y-14661814D01*
X16087957Y-14661814D01*
X16059386Y-14647529D01*
X16045100Y-14633243D01*
X16030814Y-14604671D01*
X16030814Y-14518957D01*
X16045100Y-14490386D01*
X16059386Y-14476100D01*
X16087957Y-14461814D01*
X16145100Y-14461814D01*
X16173671Y-14476100D01*
X16287957Y-14776100D02*
X16302243Y-14761814D01*
X16330814Y-14718957D01*
X16345100Y-14690386D01*
X16359386Y-14647529D01*
X16373671Y-14576100D01*
X16373671Y-14518957D01*
X16359386Y-14447529D01*
X16345100Y-14404671D01*
X16330814Y-14376100D01*
X16302243Y-14333243D01*
X16287957Y-14318957D01*
M02*
